<svg xmlns="http://www.w3.org/2000/svg" viewBox="0 0 400 400"><defs><style>.cls-1{fill:#fff;}.cls-2{fill:#0a438d;}</style></defs><g id="Layer_2" data-name="Layer 2"><g id="Layer_3" data-name="Layer 3"><circle class="cls-1" cx="200" cy="200" r="200"/><path class="cls-2" d="M162.84,195.89c4.78-2.33,8.63-4.18,12.44-6.08,12.87-6.44,25.72-12.94,38.61-19.34,6.83-3.39,11-.83,11,6.75.05,5.77,0,11.55,0,18.16,2.1-1.1,3.66-1.86,5.18-2.71q19.54-10.84,39.06-21.7c7.49-4.14,11.6-1.69,11.6,7q0,47,0,94c0,7.2-1.64,8.89-8.68,8.89q-72.06,0-144.12,0c-7.06,0-8.69-1.67-8.69-8.88q0-71.83,0-143.68c0-7.43,1.58-9,9.08-9q12.67,0,25.34,0c7.43,0,9.14,1.65,9.15,9,0,20.55,0,41.1,0,61.65Zm49.48-10.28c-2.54,1.14-4.18,1.81-5.76,2.6q-22.42,11.21-44.82,22.42c-7.44,3.71-11.48,1.25-11.49-6.95q0-33.31,0-66.61c0-1.74-.15-3.47-.22-5.13H132.07V268H268V186.15c-1.94,1-3.4,1.74-4.83,2.53q-19.74,11-39.49,21.93c-6.92,3.82-11.2,1.3-11.31-6.63C212.26,198.2,212.32,192.42,212.32,185.61Z"/><path class="cls-2" d="M175.17,240.52c0,3.15.18,6.3,0,9.43-.26,3.62-2.35,5.8-6.07,5.88s-6.08-2.08-6.24-5.67c-.29-6.43-.26-12.9,0-19.34.12-3.59,2.37-5.91,6.05-5.92,3.91,0,6.1,2.32,6.32,6.2C175.32,234.23,175.18,237.38,175.17,240.52Z"/><path class="cls-2" d="M187.52,240.11c0-3-.16-6,0-8.93.25-3.8,2.29-6.32,6.26-6.27s6.09,2.45,6.18,6.32c.14,6.12.15,12.24,0,18.36-.09,3.86-2.26,6.2-6.23,6.24-3.75,0-5.85-2.21-6.14-5.8-.26-3.29-.06-6.61-.06-9.92Z"/><path class="cls-2" d="M224.88,240.41c0,3.14.15,6.3,0,9.43-.23,3.62-2.26,5.85-6,6s-6.17-2-6.33-5.56c-.3-6.6-.3-13.23,0-19.82.17-3.61,2.68-5.72,6.37-5.55s5.71,2.46,5.92,6.09C225,234.12,224.88,237.27,224.88,240.41Z"/><path class="cls-2" d="M249.74,240.56c0,3,.1,6,0,8.93-.16,3.86-2.18,6.25-6.15,6.34-3.75.09-6.06-2.12-6.21-5.71-.27-6.44-.25-12.9,0-19.34.13-3.6,2.4-5.89,6.09-5.88,3.91,0,6.08,2.36,6.28,6.23C249.86,234.27,249.73,237.42,249.74,240.56Z"/></g></g></svg>