<svg xmlns="http://www.w3.org/2000/svg" viewBox="0 0 400 400"><defs><style>.cls-1{fill:#fff;}.cls-2{fill:#0a438d;}</style></defs><g id="Layer_2" data-name="Layer 2"><g id="Layer_1-2" data-name="Layer 1"><circle class="cls-1" cx="200" cy="200" r="200"/><path class="cls-2" d="M121.18,193.53V127.27a7,7,0,0,1,5.9-7.26,9.07,9.07,0,0,1,1.57-.1H255.17c4.57,0,7.49,2.92,7.49,7.51q0,36.88,0,73.75a2.45,2.45,0,0,0,.89,2c13.19,12,18.17,26.94,13.67,44.18-4.46,17-15.88,27.82-33.11,31.62-15.06,3.31-28.37-.82-39.63-11.39-.44-.41-.81-.69-1.43-.5a1.93,1.93,0,0,1-.59,0q-36.76,0-73.55,0a7.34,7.34,0,0,1-6.47-3.05,7.54,7.54,0,0,1-1.26-4.56Q121.2,226.52,121.18,193.53Zm136.08,5.05v-71a6.77,6.77,0,0,0,0-.78,1.49,1.49,0,0,0-1.4-1.42,10.78,10.78,0,0,0-1.27,0H129.23c-.36,0-.73,0-1.09,0a1.49,1.49,0,0,0-1.5,1.51c0,.42,0,.85,0,1.28V259.4c0,1.82.46,2.29,2.25,2.29h69.41c.31,0,.61,0,1.05-.06a44.05,44.05,0,0,1-8-28.53H161.53v-5.46h1.19q14.24,0,28.46,0c.73,0,1-.21,1.15-.93a42.89,42.89,0,0,1,8.83-18.15c.17-.21.31-.44.6-.85H161.53v-5.37h1.35q21.75,0,43.52,0a2.89,2.89,0,0,0,1.61-.5q22.53-16.38,47.55-4.16C256.08,197.93,256.58,198.22,257.26,198.58Zm-60.57,37.76A38.3,38.3,0,1,0,234.93,198,38.34,38.34,0,0,0,196.69,236.34Z"/><path class="cls-2" d="M161.5,182.37v-5.26h80.8v5.26Z"/><path class="cls-2" d="M161.55,151.81h80.68v5.27H161.55Z"/><path class="cls-2" d="M156,227.74V233H143v-5.3Z"/><path class="cls-2" d="M143,177.1H156v5.29H143Z"/><path class="cls-2" d="M143,157.08v-5.24h13v5.24Z"/><path class="cls-2" d="M143,202.42h13v5.29c-.28,0-.59.07-.9.07-3.7,0-7.4,0-11.1,0-.74,0-1-.17-1-1C143,205.39,143,204,143,202.42Z"/><path class="cls-2" d="M233.44,255.53l-19.29-16.27,3.48-4.15,15.55,13.11L258.12,224l4,3.69Z"/></g></g></svg>