<svg xmlns="http://www.w3.org/2000/svg" viewBox="0 0 400 400"><defs><style>.cls-1{fill:#fff;}.cls-2{fill:#0a438d;}</style></defs><g id="Layer_2" data-name="Layer 2"><g id="Layer_2-2" data-name="Layer 2"><circle class="cls-1" cx="200" cy="200" r="200"/><path class="cls-2" d="M176.6,208.36A47.49,47.49,0,0,1,163,197.87c-19.52-21.88-12.07-57.17,14.66-69.28a44.19,44.19,0,0,1,62.39,34.67c3,22.4-12.34,44.05-34.59,48.63a53.63,53.63,0,0,1-9.63,1c-21.23.47-37.64,9.71-49.33,27.27a55.31,55.31,0,0,0-9.2,30.88c0,2.71-1.53,4.44-3.76,4.42s-3.76-1.74-3.64-4.48c1.25-27.82,14.48-47.75,39.52-59.88,1.11-.54,2.28-1,3.44-1.43S175.08,208.9,176.6,208.36Zm19.56-76.43A36.79,36.79,0,1,0,233,168.73,36.79,36.79,0,0,0,196.16,131.93Z"/><path class="cls-2" d="M235.66,256c-5.74,4.15-11.34,8.19-16.91,12.27-1.39,1-2.78,1.49-4.27.41s-1.43-2.59-.9-4.2c2-6,3.92-12.07,6-18.08a2,2,0,0,0-.88-2.77c-5.17-3.68-10.27-7.45-15.43-11.16-1.37-1-2.39-2.11-1.86-3.89s2.09-2.24,3.84-2.24c6.29,0,12.58,0,18.87.05a2.17,2.17,0,0,0,2.53-1.76c1.86-6,3.85-11.95,5.75-17.94.53-1.67,1.27-3,3.26-3s2.77,1.35,3.3,3c1.92,6,3.9,11.94,5.75,17.94a2.14,2.14,0,0,0,2.48,1.8c6.34-.08,12.7-.09,19,0a4.94,4.94,0,0,1,3.13,1.2c1.4,1.38.83,3.3-1.11,4.72-5,3.63-9.91,7.33-15,10.82-1.66,1.14-1.87,2.14-1.24,3.95,2,5.75,3.78,11.59,5.72,17.36.56,1.65.59,3.1-.88,4.2s-2.89.62-4.27-.4C247,264.22,241.38,260.19,235.66,256Z"/></g></g></svg>